<?xml version="1.0" encoding="utf-8"?>
<!-- Generator: Adobe Illustrator 19.1.0, SVG Export Plug-In . SVG Version: 6.00 Build 0)  -->
<svg version="1.1" id="Layer_1" xmlns="http://www.w3.org/2000/svg" xmlns:xlink="http://www.w3.org/1999/xlink" x="0px" y="0px"
	 viewBox="0 0 79.4 78.5" style="enable-background:new 0 0 79.4 78.5;" xml:space="preserve">
<style type="text/css">
	.st0{opacity:0.75;enable-background:new    ;}
	.st1{fill:url(#SVGID_1_);}
</style>
<g class="st0">
	<linearGradient id="SVGID_1_" gradientUnits="userSpaceOnUse" x1="0" y1="39.2288" x2="79.373" y2="39.2288">
		<stop  offset="5.618000e-03" style="stop-color:#6ACAD2"/>
		<stop  offset="1" style="stop-color:#4265AF"/>
	</linearGradient>
	<path class="st1" d="M79.4,0L47.9,78.5H31.4L0,0h14.6c1.6,0,2.9,0.4,3.8,1.1c1,0.7,1.7,1.7,2.2,2.8l15.2,42c0.7,1.8,1.4,3.8,2.1,6
		c0.7,2.2,1.3,4.4,1.9,6.8c0.5-2.4,1.1-4.6,1.7-6.8c0.6-2.2,1.3-4.2,2-6l15.1-42c0.4-1,1.1-1.9,2.1-2.7c1-0.8,2.3-1.2,3.8-1.2H79.4z
		"/>
</g>
</svg>
