<?xml version="1.0" encoding="utf-8"?>
<!-- Generator: Adobe Illustrator 18.1.0, SVG Export Plug-In . SVG Version: 6.00 Build 0)  -->
<svg version="1.1" id="Layer_1" xmlns="http://www.w3.org/2000/svg" xmlns:xlink="http://www.w3.org/1999/xlink" x="0px" y="0px"
	 viewBox="0 0 361.2 194.6" enable-background="new 0 0 361.2 194.6" xml:space="preserve">
<circle fill="#F58538" enable-background="new    " cx="92.1" cy="108.4" r="65.4"/>
<path fill="#FFFFFF" stroke="#FFFFFF" stroke-miterlimit="10" d="M73.5,115V73.1c0,0,0.3-5.3,6.7-4.5c6.4,0.8,41.3-0.1,41.3-0.1
	s4,0.6,3.5,4.9c-0.5,3.7-0.1,43.2,0,54.4c0,2.5-0.6,5-1.9,7.2c-2.5,4.2-7.6,9.7-17.1,7.5c-8.5-2-10.5-8.4-10.6-13.4
	c-0.2-5.6,2.7-11,7.7-13.6c3.3-1.8,7.8-2.5,13.6-0.1v-20c0,0-0.3-4-5.3-3.2c-5.1,0.8-26.9,0.5-26.9,0.5s-3.2,0-2.4,6.9
	c0.7,5.7,0.1,23.7-0.2,29.9c-0.1,3.3-1.4,6.6-3.6,9c-1.4,1.6-3.4,3-6.1,3.9c-6.4,2.1-13.5-0.1-17.4-5.6c-2.3-3.3-4.1-8.2-1.4-14.2
	C59.2,108.7,73.5,115,73.5,115z"/>
<rect x="193.9" y="85.8" fill="none" width="155" height="45.2"/>
<text transform="matrix(1 0 0 1 193.8819 124.4986)" fill="#F58537" stroke="#F58538" stroke-width="2" stroke-miterlimit="10" enable-background="new    " font-family="'FranklinGothic-Book'" font-size="58">VIBES</text>
</svg>
